<svg xmlns="http://www.w3.org/2000/svg" width="140" height="50" fill="none">
  <rect width="140" height="50" fill="#1D242F" rx="8"/>
  <path fill="#fff" d="M29.7973 25.5804c.0217-1.681.9244-3.2716 2.3566-4.1521-.9035-1.2903-2.4168-2.1084-3.9912-2.1577-1.6792-.1762-3.3072 1.0048-4.1629 1.0048-.8723 0-2.1898-.9873-3.6085-.9581-1.8492.0598-3.5732 1.1111-4.4729 2.7279-1.934 3.3484-.4914 8.2694 1.3612 10.9761.9269 1.3253 2.0102 2.8058 3.4276 2.7533 1.3871-.0576 1.9051-.8845 3.5794-.8845 1.6588 0 2.1448.8845 3.591.8511 1.4884-.0242 2.4262-1.3313 3.3205-2.6692a10.9604 10.9604 0 0 0 1.5185-3.0925c-1.7492-.7398-2.9172-2.5-2.9193-4.3991Zm-2.7317-8.0898A4.8723 4.8723 0 0 0 28.1802 14a4.9574 4.9574 0 0 0-3.2076 1.6596c-.8043.9153-1.2229 2.1455-1.1437 3.3614 1.2403.0128 2.4596-.5637 3.2367-1.5304ZM41.2 19.18h.75c.1267-.2533.2333-.5667.32-.94.0867-.3733.1533-.7733.2-1.2.0467-.4333.08-.8767.1-1.33.02-.46.03-.8967.03-1.31V13h4.55v6.18H48v2.12h-.9V20h-5v1.3h-.9v-2.12Zm5.01 0v-5.36h-2.69v.78c0 1.0133-.0467 1.89-.14 2.63-.0867.74-.23 1.39-.43 1.95h3.26Zm4.997.92c-.34 0-.6633-.0533-.97-.16-.3066-.1133-.5766-.28-.81-.5-.2333-.2267-.42-.51-.56-.85-.14-.34-.21-.7367-.21-1.19v-.2c0-.4267.07-.8033.21-1.13.14-.3267.3267-.5967.56-.81.2334-.22.5034-.3833.81-.49.3067-.1133.63-.17.97-.17.34 0 .6634.0567.97.17.3067.1067.5767.27.81.49.2334.2133.42.4833.56.81.14.3267.21.7033.21 1.13v.2c0 .4533-.07.85-.21 1.19-.14.34-.3266.6233-.56.85-.2333.22-.5033.3867-.81.5-.3066.1067-.63.16-.97.16Zm0-.8c.2 0 .4-.0333.6-.1a1.51 1.51 0 0 0 .53-.33c.1534-.1533.2767-.35.37-.59.1-.24.15-.5333.15-.88v-.2c0-.32-.05-.5933-.15-.82-.0933-.2267-.2166-.4133-.37-.56a1.3968 1.3968 0 0 0-.53-.32c-.2-.0667-.4-.1-.6-.1-.2 0-.4.0333-.6.1-.2.0667-.3766.1733-.53.32-.1533.1467-.28.3333-.38.56-.0933.2267-.14.5-.14.82v.2c0 .3467.0467.64.14.88.1.24.2267.4367.38.59.1534.1467.33.2567.53.33.2.0667.4.1.6.1Zm5.8461.8c-.34 0-.6566-.0533-.95-.16-.2933-.1133-.5466-.28-.76-.5-.2133-.2267-.3833-.51-.51-.85-.12-.34-.18-.7367-.18-1.19v-.2c0-.4267.0667-.8033.2-1.13.1334-.3267.31-.5967.53-.81.22-.22.4734-.3833.76-.49a2.505 2.505 0 0 1 .91-.17c.3134 0 .5934.0433.84.13.2534.0867.47.2067.65.36.1867.1533.3367.3333.45.54.12.2067.2067.43.26.67h-.9a1.9478 1.9478 0 0 0-.19-.35.9806.9806 0 0 0-.26-.29c-.1-.08-.22-.1433-.36-.19-.14-.0467-.3033-.07-.49-.07-.1933 0-.38.0367-.56.11-.18.0667-.34.1733-.48.32-.14.14-.2533.3233-.34.55-.08.2267-.12.5-.12.82v.2c0 .34.04.6333.12.88.0867.24.2.4367.34.59.14.1467.3.2567.48.33.18.0667.3667.1.56.1.3267 0 .6-.08.82-.24.2267-.16.3867-.38.48-.66h.9c-.1266.5267-.3866.9433-.78 1.25-.3933.3-.8666.45-1.42.45Zm4.6092-4.62h-1.81v-.78h4.5v.78h-1.81V20h-.88v-4.52ZM66.25 22.1c-.1 0-.2-.01-.3-.03v-.8c.1.02.2.03.3.03.1 0 .1867-.0167.26-.05s.1433-.0967.21-.19c.0667-.0933.1367-.2267.21-.4.08-.1667.17-.3867.27-.66l-2.25-5.3h.98l1.72 4.3 1.56-4.3h.94l-2 5.3c-.14.3733-.2733.6933-.4.96-.1267.2667-.2633.4833-.41.65-.14.1733-.2967.2967-.47.37-.1733.08-.38.12-.62.12Zm4.8957-7.4h4.4V20h-.88v-4.52h-2.64V20h-.88v-5.3Zm5.9961 0h.88v2.21h2.74V14.7h.88V20h-.88v-2.31h-2.74V20h-.88v-5.3Zm8.3035 5.4c-.34 0-.6633-.0533-.97-.16-.3067-.1133-.5767-.28-.81-.5-.2333-.2267-.42-.51-.56-.85-.14-.34-.21-.7367-.21-1.19v-.2c0-.4267.07-.8033.21-1.13.14-.3267.3267-.5967.56-.81.2333-.22.5033-.3833.81-.49.3067-.1133.63-.17.97-.17.34 0 .6633.0567.97.17.3067.1067.5767.27.81.49.2333.2133.42.4833.56.81.14.3267.21.7033.21 1.13v.2c0 .4533-.07.85-.21 1.19-.14.34-.3267.6233-.56.85-.2333.22-.5033.3867-.81.5-.3067.1067-.63.16-.97.16Zm0-.8c.2 0 .4-.0333.6-.1a1.51 1.51 0 0 0 .53-.33c.1533-.1533.2767-.35.37-.59.1-.24.15-.5333.15-.88v-.2c0-.32-.05-.5933-.15-.82-.0933-.2267-.2167-.4133-.37-.56a1.3968 1.3968 0 0 0-.53-.32c-.2-.0667-.4-.1-.6-.1-.2 0-.4.0333-.6.1-.2.0667-.3767.1733-.53.32-.1533.1467-.28.3333-.38.56-.0933.2267-.14.5-.14.82v.2c0 .3467.0467.64.14.88.1.24.2267.4367.38.59a1.51 1.51 0 0 0 .53.33c.2.0667.4.1.6.1Zm6.2961-4.6h2.3c.6533 0 1.1333.1367 1.44.41.3067.2667.46.6133.46 1.04 0 .1133-.02.23-.06.35-.04.1133-.0967.22-.17.32-.0667.1-.15.1867-.25.26-.0933.0733-.2.13-.32.17.3267.08.5733.2333.74.46.1733.22.26.48.26.78 0 .46-.1533.8267-.46 1.1-.3067.2733-.7867.41-1.44.41h-2.5v-5.3Zm2.5 4.52c.3733 0 .6367-.0667.79-.2.1533-.1333.23-.3233.23-.57 0-.2533-.0767-.4467-.23-.58-.1533-.14-.4167-.21-.79-.21h-1.62v1.56h1.62Zm-.2-2.28c.38 0 .6433-.0667.79-.2.1533-.1333.23-.3167.23-.55 0-.22-.0767-.3933-.23-.52-.1467-.1267-.41-.19-.79-.19h-1.42v1.46h1.42ZM47.692 34.788h-3.976L42.89 37h-1.68l3.71-9.8h1.68l3.71 9.8h-1.792l-.826-2.212Zm-3.43-1.456h2.884L45.718 29.3l-1.456 4.032Zm7.2336-3.752h1.428v1.246c.224-.4293.5554-.77.994-1.022.448-.252.952-.378 1.512-.378.9707 0 1.736.3033 2.296.91.56.6067.84 1.5213.84 2.744v.28c0 .6347-.0746 1.19-.224 1.666-.1493.476-.364.8727-.644 1.19-.2706.308-.5973.5413-.98.7-.3826.1587-.812.238-1.288.238-.532 0-1.0173-.1167-1.456-.35-.4386-.2333-.7513-.56-.938-.98V39.8h-1.54V29.58Zm3.57 6.23c.5787 0 1.0454-.2007 1.4-.602.3547-.4013.532-1.0173.532-1.848v-.28c0-.784-.1726-1.3627-.518-1.736-.3453-.3827-.8166-.574-1.414-.574-.2613 0-.5133.042-.756.126-.2426.084-.462.21-.658.378-.1866.1587-.336.364-.448.616-.112.2427-.168.5227-.168.84v.98c0 .3547.056.6627.168.924.112.2613.2614.4807.448.658.1867.1773.4014.308.644.392.2427.084.4994.126.77.126Zm5.0433-6.23h1.428v1.246c.224-.4293.5553-.77.994-1.022.448-.252.952-.378 1.512-.378.9707 0 1.736.3033 2.296.91.56.6067.84 1.5213.84 2.744v.28c0 .6347-.0747 1.19-.224 1.666s-.364.8727-.644 1.19c-.2707.308-.5973.5413-.98.7-.3827.1587-.812.238-1.288.238-.532 0-1.0173-.1167-1.456-.35-.4387-.2333-.7513-.56-.938-.98V39.8h-1.54V29.58Zm3.57 6.23c.5787 0 1.0453-.2007 1.4-.602s.532-1.0173.532-1.848v-.28c0-.784-.1727-1.3627-.518-1.736-.3453-.3827-.8167-.574-1.414-.574-.2613 0-.5133.042-.756.126-.2427.084-.462.21-.658.378-.1867.1587-.336.364-.448.616-.112.2427-.168.5227-.168.84v.98c0 .3547.056.6627.168.924.112.2613.2613.4807.448.658.1867.1773.4013.308.644.392.2427.084.4993.126.77.126Zm12.1133 1.344c-.6347 0-1.1853-.07-1.652-.21-.4667-.14-.8587-.336-1.176-.588-.308-.252-.546-.546-.714-.882-.168-.3453-.2707-.7233-.308-1.134h1.68c.0373.196.098.3733.182.532.0933.1587.224.2987.392.42.168.1213.378.2147.63.28.2613.0653.5833.098.966.098.392 0 .7233-.0327.994-.098.28-.0747.504-.168.672-.28.1773-.1213.3033-.2613.378-.42a1.174 1.174 0 0 0 .126-.532c0-.4573-.2147-.8027-.644-1.036-.42-.2333-1.078-.4433-1.974-.63-.504-.112-.952-.2427-1.344-.392-.392-.1587-.7187-.35-.98-.574a2.3885 2.3885 0 0 1-.602-.826c-.1307-.3267-.196-.714-.196-1.162 0-.364.0747-.7093.224-1.036.1587-.3267.3873-.6113.686-.854.2987-.2427.6673-.434 1.106-.574.448-.14.966-.21 1.554-.21.5693 0 1.0687.0653 1.498.196s.7887.3173 1.078.56c.2987.2333.5273.5133.686.84.168.3267.2707.686.308 1.078h-1.68c-.0747-.3547-.266-.6393-.574-.854-.2987-.224-.7373-.336-1.316-.336-.672 0-1.1573.1167-1.456.35-.2893.2333-.434.5133-.434.84 0 .448.1867.784.56 1.008.3733.224.9473.4153 1.722.574.5693.1213 1.0687.2613 1.498.42.4387.1587.8027.3593 1.092.602.2893.2333.504.5133.644.84.1493.3267.224.7187.224 1.176 0 .4013-.0793.7747-.238 1.12-.1587.3453-.4013.644-.728.896-.3173.252-.7187.448-1.204.588-.476.14-1.036.21-1.68.21Zm8.2687-.084c-.8493 0-1.4606-.182-1.834-.546-.364-.364-.546-.952-.546-1.764v-3.864h-1.05V29.58h1.05V27.9h1.54v1.68h1.89v1.316h-1.89v3.654c0 .4387.0794.7467.238.924.168.168.4854.252.952.252.28 0 .56-.014.84-.042V37a9.9041 9.9041 0 0 1-.546.042c-.1866.0187-.4013.028-.644.028Zm5.8871.084c-.5133 0-.994-.0793-1.442-.238-.4386-.168-.8213-.4107-1.148-.728-.3266-.3173-.5833-.7093-.77-1.176-.1866-.476-.28-1.0267-.28-1.652v-.28c0-.588.0934-1.106.28-1.554.1867-.4573.4434-.84.77-1.148.3267-.3173.7094-.5553 1.148-.714.448-.1587.9287-.238 1.442-.238.5134 0 .9894.0793 1.428.238.448.1587.8354.3967 1.162.714.3267.308.5834.6907.77 1.148.1867.448.28.966.28 1.554v.28c0 .6253-.0933 1.176-.28 1.652-.1866.4667-.4433.8587-.77 1.176-.3266.3173-.714.56-1.162.728-.4386.1587-.9146.238-1.428.238Zm0-1.344c.2707 0 .5274-.0467.77-.14a1.724 1.724 0 0 0 .658-.434c.196-.196.35-.448.462-.756.1214-.308.182-.6813.182-1.12v-.28c0-.4013-.0606-.7467-.182-1.036-.112-.2893-.266-.5273-.462-.714a1.8044 1.8044 0 0 0-.658-.42c-.2426-.0933-.4993-.14-.77-.14-.2706 0-.532.0467-.784.14-.2426.0933-.462.2333-.658.42-.1866.1867-.3406.4247-.462.714-.112.2893-.168.6347-.168 1.036v.28c0 .4387.056.812.168 1.12.1214.308.2754.56.462.756.196.196.4154.3407.658.434.252.0933.5134.14.784.14Zm5.1746-6.23h1.428v1.26c.1493-.3827.392-.714.728-.994.3453-.28.77-.42 1.274-.42.2333 0 .406.0093.518.028.1213.0187.2053.0373.252.056v1.4c-.1587-.0467-.3034-.0793-.434-.098-.1307-.028-.2894-.042-.476-.042-.308 0-.574.056-.798.168-.2147.1027-.392.2427-.532.42-.14.168-.2474.3687-.322.602a2.4847 2.4847 0 0 0-.098.7V37h-1.54v-7.42Zm8.5384 7.574c-.495 0-.961-.0747-1.4-.224-.439-.1587-.826-.392-1.162-.7-.327-.3173-.588-.714-.784-1.19-.196-.476-.294-1.036-.294-1.68v-.28c0-.616.093-1.1527.28-1.61.187-.4573.439-.8353.756-1.134.327-.308.7-.5367 1.12-.686.42-.1493.868-.224 1.344-.224 1.129 0 1.993.3033 2.59.91.607.6067.91 1.4747.91 2.604v.784h-5.432c.009.3827.07.7093.182.98.121.2613.275.476.462.644.196.1587.415.2753.658.35.252.0747.509.112.77.112.532 0 .919-.084 1.162-.252.252-.168.425-.3873.518-.658h1.54c-.149.7373-.518 1.2973-1.106 1.68-.579.3827-1.283.574-2.114.574Zm-.07-6.384c-.261 0-.513.0327-.756.098a1.761 1.761 0 0 0-.63.322c-.177.14-.322.3267-.434.56-.112.224-.173.4993-.182.826h3.892c-.009-.3453-.065-.6347-.168-.868-.093-.2333-.224-.42-.392-.56-.168-.14-.369-.238-.602-.294-.224-.056-.467-.084-.728-.084Z"/>
</svg>
