<svg xmlns="http://www.w3.org/2000/svg" width="24" height="24" fill="none">
  <path stroke="#D92E15" stroke-linecap="round" stroke-linejoin="round" stroke-width="2" d="M6 10v4m12-4v4M2 8.2v7.6c0 1.1201 0 1.6802.218 2.108.1917.3763.4977.6823.874.874C3.5198 19 4.08 19 5.2 19h13.6c1.1201 0 1.6802 0 2.108-.218a1.9996 1.9996 0 0 0 .874-.874C22 17.4802 22 16.9201 22 15.8V8.2c0-1.1201 0-1.6802-.218-2.108a1.9998 1.9998 0 0 0-.874-.874C20.4802 5 19.9201 5 18.8 5H5.2c-1.1201 0-1.6802 0-2.108.218a2 2 0 0 0-.874.874C2 6.5198 2 7.08 2 8.2ZM14.5 12c0 1.3807-1.1193 2.5-2.5 2.5S9.5 13.3807 9.5 12s1.1193-2.5 2.5-2.5 2.5 1.1193 2.5 2.5Z"/>
</svg>
