<svg xmlns="http://www.w3.org/2000/svg" width="140" height="50" fill="none">
  <rect width="140" height="50" fill="#1D242F" rx="8"/>
  <g filter="url(#a)">
    <path fill="url(#b)" d="M15.342 15.2932c-.2149.2275-.342.5806-.342 1.0379v16.3371c0 .458.1271.8104.342 1.0379l.0547.0532 9.1518-9.1518v-.2157l-9.1518-9.1525-.0547.0539Z"/>
    <path fill="url(#c)" d="m27.5984 27.6589-3.0501-3.0515v-.2157l3.0509-3.0509.0687.0392 3.6145 2.0536c1.0319.5865 1.0319 1.5461 0 2.1333l-3.6145 2.0536-.0695.0384Z"/>
    <g filter="url(#d)">
      <path fill="url(#e)" d="M27.6683 27.6203 24.548 24.5l-9.2057 9.2065c.3398.3604.9019.4048 1.535.0458l10.791-6.132Z"/>
    </g>
    <path fill="url(#f)" d="m27.6683 21.3795-10.791-6.1312c-.6331-.3598-1.1952-.3147-1.535.0458l9.2064 9.2064 3.1196-3.121Z"/>
  </g>
  <path fill="#fff" d="M41.2 19.18h.75c.1267-.2533.2333-.5667.32-.94.0867-.3733.1533-.7733.2-1.2.0467-.4333.08-.8767.1-1.33.02-.46.03-.8967.03-1.31V13h4.55v6.18H48v2.12h-.9V20h-5v1.3h-.9v-2.12Zm5.01 0v-5.36h-2.69v.78c0 1.0133-.0467 1.89-.14 2.63-.0867.74-.23 1.39-.43 1.95h3.26Zm4.997.92c-.34 0-.6633-.0533-.97-.16-.3066-.1133-.5766-.28-.81-.5-.2333-.2267-.42-.51-.56-.85-.14-.34-.21-.7367-.21-1.19v-.2c0-.4267.07-.8033.21-1.13.14-.3267.3267-.5967.56-.81.2334-.22.5034-.3833.81-.49.3067-.1133.63-.17.97-.17.34 0 .6634.0567.97.17.3067.1067.5767.27.81.49.2334.2133.42.4833.56.81.14.3267.21.7033.21 1.13v.2c0 .4533-.07.85-.21 1.19-.14.34-.3266.6233-.56.85-.2333.22-.5033.3867-.81.5-.3066.1067-.63.16-.97.16Zm0-.8c.2 0 .4-.0333.6-.1a1.51 1.51 0 0 0 .53-.33c.1534-.1533.2767-.35.37-.59.1-.24.15-.5333.15-.88v-.2c0-.32-.05-.5933-.15-.82-.0933-.2267-.2166-.4133-.37-.56a1.3968 1.3968 0 0 0-.53-.32c-.2-.0667-.4-.1-.6-.1-.2 0-.4.0333-.6.1-.2.0667-.3766.1733-.53.32-.1533.1467-.28.3333-.38.56-.0933.2267-.14.5-.14.82v.2c0 .3467.0467.64.14.88.1.24.2267.4367.38.59.1534.1467.33.2567.53.33.2.0667.4.1.6.1Zm5.8461.8c-.34 0-.6566-.0533-.95-.16-.2933-.1133-.5466-.28-.76-.5-.2133-.2267-.3833-.51-.51-.85-.12-.34-.18-.7367-.18-1.19v-.2c0-.4267.0667-.8033.2-1.13.1334-.3267.31-.5967.53-.81.22-.22.4734-.3833.76-.49a2.505 2.505 0 0 1 .91-.17c.3134 0 .5934.0433.84.13.2534.0867.47.2067.65.36.1867.1533.3367.3333.45.54.12.2067.2067.43.26.67h-.9a1.9478 1.9478 0 0 0-.19-.35.9806.9806 0 0 0-.26-.29c-.1-.08-.22-.1433-.36-.19-.14-.0467-.3033-.07-.49-.07-.1933 0-.38.0367-.56.11-.18.0667-.34.1733-.48.32-.14.14-.2533.3233-.34.55-.08.2267-.12.5-.12.82v.2c0 .34.04.6333.12.88.0867.24.2.4367.34.59.14.1467.3.2567.48.33.18.0667.3667.1.56.1.3267 0 .6-.08.82-.24.2267-.16.3867-.38.48-.66h.9c-.1266.5267-.3866.9433-.78 1.25-.3933.3-.8666.45-1.42.45Zm4.6092-4.62h-1.81v-.78h4.5v.78h-1.81V20h-.88v-4.52ZM66.25 22.1c-.1 0-.2-.01-.3-.03v-.8c.1.02.2.03.3.03.1 0 .1867-.0167.26-.05s.1433-.0967.21-.19c.0667-.0933.1367-.2267.21-.4.08-.1667.17-.3867.27-.66l-2.25-5.3h.98l1.72 4.3 1.56-4.3h.94l-2 5.3c-.14.3733-.2733.6933-.4.96-.1267.2667-.2633.4833-.41.65-.14.1733-.2967.2967-.47.37-.1733.08-.38.12-.62.12Zm4.8957-7.4h4.4V20h-.88v-4.52h-2.64V20h-.88v-5.3Zm5.9961 0h.88v2.21h2.74V14.7h.88V20h-.88v-2.31h-2.74V20h-.88v-5.3Zm8.3035 5.4c-.34 0-.6633-.0533-.97-.16-.3067-.1133-.5767-.28-.81-.5-.2333-.2267-.42-.51-.56-.85-.14-.34-.21-.7367-.21-1.19v-.2c0-.4267.07-.8033.21-1.13.14-.3267.3267-.5967.56-.81.2333-.22.5033-.3833.81-.49.3067-.1133.63-.17.97-.17.34 0 .6633.0567.97.17.3067.1067.5767.27.81.49.2333.2133.42.4833.56.81.14.3267.21.7033.21 1.13v.2c0 .4533-.07.85-.21 1.19-.14.34-.3267.6233-.56.85-.2333.22-.5033.3867-.81.5-.3067.1067-.63.16-.97.16Zm0-.8c.2 0 .4-.0333.6-.1a1.51 1.51 0 0 0 .53-.33c.1533-.1533.2767-.35.37-.59.1-.24.15-.5333.15-.88v-.2c0-.32-.05-.5933-.15-.82-.0933-.2267-.2167-.4133-.37-.56a1.3968 1.3968 0 0 0-.53-.32c-.2-.0667-.4-.1-.6-.1-.2 0-.4.0333-.6.1-.2.0667-.3767.1733-.53.32-.1533.1467-.28.3333-.38.56-.0933.2267-.14.5-.14.82v.2c0 .3467.0467.64.14.88.1.24.2267.4367.38.59a1.51 1.51 0 0 0 .53.33c.2.0667.4.1.6.1Zm6.2961-4.6h2.3c.6533 0 1.1333.1367 1.44.41.3067.2667.46.6133.46 1.04 0 .1133-.02.23-.06.35-.04.1133-.0967.22-.17.32-.0667.1-.15.1867-.25.26-.0933.0733-.2.13-.32.17.3267.08.5733.2333.74.46.1733.22.26.48.26.78 0 .46-.1533.8267-.46 1.1-.3067.2733-.7867.41-1.44.41h-2.5v-5.3Zm2.5 4.52c.3733 0 .6367-.0667.79-.2.1533-.1333.23-.3233.23-.57 0-.2533-.0767-.4467-.23-.58-.1533-.14-.4167-.21-.79-.21h-1.62v1.56h1.62Zm-.2-2.28c.38 0 .6433-.0667.79-.2.1533-.1333.23-.3167.23-.55 0-.22-.0767-.3933-.23-.52-.1467-.1267-.41-.19-.79-.19h-1.42v1.46h1.42ZM46.18 37.154c-.672 0-1.2833-.1027-1.834-.308-.5413-.2147-1.0033-.532-1.386-.952-.3827-.42-.6767-.938-.882-1.554-.2053-.6253-.308-1.3487-.308-2.17v-.28c0-.7653.1027-1.4467.308-2.044.2147-.6067.5133-1.1153.896-1.526.392-.42.8587-.7373 1.4-.952.5413-.2147 1.1433-.322 1.806-.322 1.0173 0 1.8713.266 2.562.798.6907.5227 1.1433 1.288 1.358 2.296h-1.82c-.1027-.308-.2287-.5647-.378-.77-.1493-.2053-.3173-.3687-.504-.49-.1867-.1307-.3873-.2193-.602-.266a2.3322 2.3322 0 0 0-.616-.084c-.7933 0-1.4327.2753-1.918.826-.4853.5413-.728 1.386-.728 2.534v.28c0 .5973.0653 1.1153.196 1.554.1307.4387.3127.8027.546 1.092.2333.2893.5133.504.84.644s.6813.21 1.064.21c.728 0 1.3067-.1913 1.736-.574.4387-.3827.6953-.9847.77-1.806H46.46v-1.4h3.85v.56c0 .784-.098 1.47-.294 2.058-.1867.588-.4573 1.078-.812 1.47-.3547.392-.7887.686-1.302.882-.504.196-1.078.294-1.722.294Zm9.0278 0c-.5133 0-.994-.0793-1.442-.238-.4387-.168-.8213-.4107-1.148-.728-.3267-.3173-.5833-.7093-.77-1.176-.1867-.476-.28-1.0267-.28-1.652v-.28c0-.588.0933-1.106.28-1.554.1867-.4573.4433-.84.77-1.148.3267-.3173.7093-.5553 1.148-.714.448-.1587.9287-.238 1.442-.238s.9893.0793 1.428.238c.448.1587.8353.3967 1.162.714.3267.308.5833.6907.77 1.148.1867.448.28.966.28 1.554v.28c0 .6253-.0933 1.176-.28 1.652-.1867.4667-.4433.8587-.77 1.176-.3267.3173-.714.56-1.162.728-.4387.1587-.9147.238-1.428.238Zm0-1.344c.2707 0 .5273-.0467.77-.14.252-.0933.4713-.238.658-.434.196-.196.35-.448.462-.756.1213-.308.182-.6813.182-1.12v-.28c0-.4013-.0607-.7467-.182-1.036-.112-.2893-.266-.5273-.462-.714a1.8052 1.8052 0 0 0-.658-.42c-.2427-.0933-.4993-.14-.77-.14s-.532.0467-.784.14c-.2427.0933-.462.2333-.658.42-.1867.1867-.3407.4247-.462.714-.112.2893-.168.6347-.168 1.036v.28c0 .4387.056.812.168 1.12.1213.308.2753.56.462.756.196.196.4153.3407.658.434.252.0933.5133.14.784.14Zm8.3945 1.344c-.5133 0-.994-.0793-1.442-.238-.4386-.168-.8213-.4107-1.148-.728-.3266-.3173-.5833-.7093-.77-1.176-.1866-.476-.28-1.0267-.28-1.652v-.28c0-.588.0934-1.106.28-1.554.1867-.4573.4434-.84.77-1.148.3267-.3173.7094-.5553 1.148-.714.448-.1587.9287-.238 1.442-.238.5134 0 .9894.0793 1.428.238.448.1587.8354.3967 1.162.714.3267.308.5834.6907.77 1.148.1867.448.28.966.28 1.554v.28c0 .6253-.0933 1.176-.28 1.652-.1866.4667-.4433.8587-.77 1.176-.3266.3173-.714.56-1.162.728-.4386.1587-.9146.238-1.428.238Zm0-1.344c.2707 0 .5274-.0467.77-.14a1.724 1.724 0 0 0 .658-.434c.196-.196.35-.448.462-.756.1214-.308.182-.6813.182-1.12v-.28c0-.4013-.0606-.7467-.182-1.036-.112-.2893-.266-.5273-.462-.714a1.8044 1.8044 0 0 0-.658-.42c-.2426-.0933-.4993-.14-.77-.14-.2706 0-.532.0467-.784.14-.2426.0933-.462.2333-.658.42-.1866.1867-.3406.4247-.462.714-.112.2893-.168.6347-.168 1.036v.28c0 .4387.056.812.168 1.12.1214.308.2754.56.462.756.196.196.4154.3407.658.434.252.0933.5134.14.784.14Zm8.2546 4.144c-.5787 0-1.064-.056-1.456-.168-.392-.1027-.714-.252-.966-.448s-.4387-.4293-.56-.7c-.1214-.2613-.2007-.5507-.238-.868h1.568c.0373.112.0886.2193.154.322.0746.112.1726.21.294.294.1306.084.294.1493.49.196.196.056.434.084.714.084.7 0 1.2133-.168 1.54-.504.3266-.336.49-.8167.49-1.442v-1.05c-.2334.392-.5507.714-.952.966-.4014.252-.882.378-1.442.378-.476 0-.9054-.0793-1.288-.238a2.753 2.753 0 0 1-.994-.7c-.2707-.308-.4807-.6953-.63-1.162-.1494-.4667-.224-1.008-.224-1.624v-.28c0-.5787.0746-1.0873.224-1.526.1493-.448.3593-.8213.63-1.12a2.753 2.753 0 0 1 .994-.7c.3826-.1587.8073-.238 1.274-.238.616 0 1.1433.14 1.582.42.448.28.7606.6067.938.98V29.58h1.428v7.07c0 1.0453-.2987 1.8573-.896 2.436-.5974.5787-1.4887.868-2.674.868Zm-.014-4.284c.2706 0 .5273-.042.77-.126.252-.084.4713-.21.658-.378.1866-.1773.336-.392.448-.644.112-.2613.168-.56.168-.896v-.98c0-.2987-.056-.5647-.168-.798-.112-.2333-.266-.4293-.462-.588-.1867-.1587-.406-.28-.658-.364a2.2951 2.2951 0 0 0-.756-.126c-.588 0-1.0547.1867-1.4.56-.3454.364-.518.924-.518 1.68v.28c0 .7933.1773 1.3907.532 1.792.3546.392.8166.588 1.386.588Zm7.9273 1.4c-.4014 0-.7467-.042-1.036-.126-.2894-.084-.532-.2193-.728-.406-.1867-.196-.3267-.448-.42-.756-.084-.3173-.126-.7-.126-1.148V27.2h1.54v7.322c0 .4573.0746.7747.224.952.1493.168.4246.252.826.252h.266l.224-.028v1.33c-.0747.0187-.196.028-.364.028-.168.0093-.3034.014-.406.014Zm5.256.084c-.4947 0-.9614-.0747-1.4-.224-.4387-.1587-.826-.392-1.162-.7-.3267-.3173-.588-.714-.784-1.19-.196-.476-.294-1.036-.294-1.68v-.28c0-.616.0933-1.1527.28-1.61.1866-.4573.4386-.8353.756-1.134.3266-.308.7-.5367 1.12-.686.42-.1493.868-.224 1.344-.224 1.1293 0 1.9926.3033 2.59.91.6066.6067.91 1.4747.91 2.604v.784h-5.432c.0093.3827.07.7093.182.98.1213.2613.2753.476.462.644.196.1587.4153.2753.658.35.252.0747.5086.112.77.112.532 0 .9193-.084 1.162-.252.252-.168.4246-.3873.518-.658h1.54c-.1494.7373-.518 1.2973-1.106 1.68-.5787.3827-1.2834.574-2.114.574Zm-.07-6.384a2.896 2.896 0 0 0-.756.098 1.7544 1.7544 0 0 0-.63.322c-.1774.14-.322.3267-.434.56-.112.224-.1727.4993-.182.826h3.892c-.0094-.3453-.0654-.6347-.168-.868-.0934-.2333-.224-.42-.392-.56-.168-.14-.3687-.238-.602-.294-.224-.056-.4667-.084-.728-.084Zm8.7511-3.57h3.57c1.316 0 2.2866.2847 2.9117.854.626.56.938 1.316.938 2.268 0 .952-.312 1.7127-.938 2.282-.6251.56-1.5957.84-2.9117.84h-1.89V37h-1.68v-9.8Zm3.43 4.788c.4386 0 .8073-.0327 1.106-.098.2986-.0747.5366-.1773.714-.308.1773-.14.3033-.3127.378-.518.0746-.2147.112-.462.112-.742 0-.28-.0374-.5227-.112-.728-.0747-.2053-.2007-.378-.378-.518-.1774-.14-.4154-.2427-.714-.308-.2987-.0747-.6674-.112-1.106-.112h-1.75v3.332h1.75Zm7.9117 5.082c-.401 0-.746-.042-1.036-.126-.289-.084-.532-.2193-.728-.406-.186-.196-.326-.448-.42-.756-.084-.3173-.126-.7-.126-1.148V27.2h1.54v7.322c0 .4573.075.7747.224.952.15.168.425.252.826.252h.266l.224-.028v1.33c-.074.0187-.196.028-.364.028-.168.0093-.303.014-.406.014Zm4.343.084c-.401 0-.76-.056-1.078-.168-.308-.1213-.569-.2847-.784-.49a2.199 2.199 0 0 1-.49-.742c-.112-.28-.168-.588-.168-.924 0-.7373.22-1.2833.658-1.638.439-.364 1.083-.546 1.932-.546h2.31v-.406c0-.56-.126-.9427-.378-1.148-.242-.2147-.63-.322-1.162-.322-.476 0-.826.0747-1.05.224-.224.1493-.354.3547-.392.616h-1.498c.019-.3173.098-.6067.238-.868.15-.2707.35-.504.602-.7.262-.196.574-.3453.938-.448.364-.112.775-.168 1.232-.168.458 0 .868.0513 1.232.154.374.1027.691.266.952.49.262.2147.462.4947.602.84.15.3453.224.7607.224 1.246v2.954c0 .392.005.7373.014 1.036.01.2893.033.574.07.854h-1.4c-.028-.2147-.051-.3967-.07-.546-.009-.1493-.014-.336-.014-.56-.177.3453-.485.644-.924.896-.429.2427-.961.364-1.596.364Zm.42-1.344c.262 0 .509-.0327.742-.098.243-.0747.453-.1773.63-.308.178-.14.318-.308.42-.504.112-.2053.168-.4387.168-.7v-.406h-2.03c-.392 0-.709.084-.952.252-.233.168-.35.4153-.35.742 0 .308.108.5553.322.742.224.1867.574.28 1.05.28Zm6.379 4.144c-.14 0-.28-.014-.42-.042v-1.344c.14.028.28.042.42.042.159 0 .29-.028.392-.084.112-.0467.21-.1353.294-.266.094-.1213.182-.2847.266-.49.094-.2053.196-.462.308-.77l-3.15-7.42h1.68l2.268 5.74 2.044-5.74h1.568l-2.87 7.42c-.205.5227-.396.9707-.574 1.344-.177.3733-.373.6767-.588.91-.205.2427-.438.42-.7.532-.261.112-.574.168-.938.168Z"/>
  <defs>
    <linearGradient id="b" x1="23.7372" x2="11.3403" y1="16.1582" y2="28.5551" gradientUnits="userSpaceOnUse">
      <stop stop-color="#00A0FF"/>
      <stop offset=".0066" stop-color="#00A1FF"/>
      <stop offset=".2601" stop-color="#00BEFF"/>
      <stop offset=".5122" stop-color="#00D2FF"/>
      <stop offset=".7604" stop-color="#00DFFF"/>
      <stop offset="1" stop-color="#00E3FF"/>
    </linearGradient>
    <linearGradient id="c" x1="32.6257" x2="14.7521" y1="24.4995" y2="24.4995" gradientUnits="userSpaceOnUse">
      <stop stop-color="#FFE000"/>
      <stop offset=".4087" stop-color="#FFBD00"/>
      <stop offset=".7754" stop-color="orange"/>
      <stop offset="1" stop-color="#FF9C00"/>
    </linearGradient>
    <linearGradient id="e" x1="25.9738" x2="9.162" y1="26.1945" y2="43.0063" gradientUnits="userSpaceOnUse">
      <stop stop-color="#FF3A44"/>
      <stop offset="1" stop-color="#C31162"/>
    </linearGradient>
    <linearGradient id="f" x1="13.0238" x2="20.5307" y1="9.8556" y2="17.3625" gradientUnits="userSpaceOnUse">
      <stop stop-color="#32A071"/>
      <stop offset=".0685" stop-color="#2DA771"/>
      <stop offset=".4762" stop-color="#15CF74"/>
      <stop offset=".8009" stop-color="#06E775"/>
      <stop offset="1" stop-color="#00F076"/>
    </linearGradient>
    <filter id="a" width="17.0562" height="19" x="15" y="15" color-interpolation-filters="sRGB" filterUnits="userSpaceOnUse">
      <feFlood flood-opacity="0" result="BackgroundImageFix"/>
      <feBlend in="SourceGraphic" in2="BackgroundImageFix" result="shape"/>
      <feColorMatrix in="SourceAlpha" result="hardAlpha" values="0 0 0 0 0 0 0 0 0 0 0 0 0 0 0 0 0 0 127 0"/>
      <feOffset dy="-.1108"/>
      <feComposite in2="hardAlpha" k2="-1" k3="1" operator="arithmetic"/>
      <feColorMatrix values="0 0 0 0 0 0 0 0 0 0 0 0 0 0 0 0 0 0 0.12 0"/>
      <feBlend in2="shape" result="effect1_innerShadow_890_11947"/>
      <feColorMatrix in="SourceAlpha" result="hardAlpha" values="0 0 0 0 0 0 0 0 0 0 0 0 0 0 0 0 0 0 127 0"/>
      <feOffset dy=".1108"/>
      <feComposite in2="hardAlpha" k2="-1" k3="1" operator="arithmetic"/>
      <feColorMatrix values="0 0 0 0 1 0 0 0 0 1 0 0 0 0 1 0 0 0 0.25 0"/>
      <feBlend in2="effect1_innerShadow_890_11947" result="effect2_innerShadow_890_11947"/>
    </filter>
    <filter id="d" width="12.3262" height="9.5" x="15.3423" y="24.5" color-interpolation-filters="sRGB" filterUnits="userSpaceOnUse">
      <feFlood flood-opacity="0" result="BackgroundImageFix"/>
      <feBlend in="SourceGraphic" in2="BackgroundImageFix" result="shape"/>
      <feColorMatrix in="SourceAlpha" result="hardAlpha" values="0 0 0 0 0 0 0 0 0 0 0 0 0 0 0 0 0 0 127 0"/>
      <feOffset dy="-.1108"/>
      <feComposite in2="hardAlpha" k2="-1" k3="1" operator="arithmetic"/>
      <feColorMatrix values="0 0 0 0 0 0 0 0 0 0 0 0 0 0 0 0 0 0 0.08 0"/>
      <feBlend in2="shape" result="effect1_innerShadow_890_11947"/>
    </filter>
  </defs>
</svg>
